<svg width="200" height="170" viewBox="0 0 200 170" fill="none" xmlns="http://www.w3.org/2000/svg">
<path d="M50 50L99.5 100L150 50" stroke="#9C084D" stroke-width="100" stroke-linecap="round"/>
<path d="M49.1055 91V73.5455H56.6737C58.0032 73.5455 59.1197 73.7244 60.0231 74.0824C60.9322 74.4403 61.6168 74.946 62.0771 75.5994C62.543 76.2528 62.7759 77.0227 62.7759 77.9091C62.7759 78.5511 62.6339 79.1364 62.3498 79.6648C62.0714 80.1932 61.6793 80.6364 61.1737 80.9943C60.668 81.3466 60.0771 81.5909 59.4009 81.7273V81.8977C60.1509 81.9261 60.8327 82.1165 61.4464 82.4688C62.06 82.8153 62.5487 83.2955 62.9123 83.9091C63.2759 84.517 63.4577 85.233 63.4577 86.0568C63.4577 87.0114 63.2077 87.8608 62.7077 88.6051C62.2134 89.3494 61.5089 89.9347 60.5941 90.3608C59.6793 90.7869 58.5884 91 57.3214 91H49.1055ZM53.8441 87.2159H56.06C56.8555 87.2159 57.4521 87.0682 57.8498 86.7727C58.2475 86.4716 58.4464 86.0284 58.4464 85.4432C58.4464 85.0341 58.3526 84.6875 58.1651 84.4034C57.9776 84.1193 57.7106 83.9034 57.364 83.7557C57.0231 83.608 56.6112 83.5341 56.1282 83.5341H53.8441V87.2159ZM53.8441 80.6023H55.7873C56.2021 80.6023 56.5685 80.5369 56.8867 80.4062C57.2049 80.2756 57.4521 80.0881 57.6282 79.8438C57.81 79.5938 57.9009 79.2898 57.9009 78.9318C57.9009 78.392 57.7077 77.9801 57.3214 77.696C56.935 77.4062 56.4464 77.2614 55.8555 77.2614H53.8441V80.6023ZM71.4776 91.2386C70.0799 91.2386 68.8754 90.9716 67.864 90.4375C66.8583 89.8977 66.0827 89.125 65.5373 88.1193C64.9975 87.108 64.7276 85.8977 64.7276 84.4886C64.7276 83.1364 65.0004 81.9545 65.5458 80.9432C66.0913 79.9318 66.8612 79.1449 67.8555 78.5824C68.8498 78.0199 70.0231 77.7386 71.3754 77.7386C72.364 77.7386 73.2589 77.892 74.06 78.1989C74.8612 78.5057 75.5458 78.9517 76.114 79.5369C76.6822 80.1165 77.1197 80.821 77.4265 81.6506C77.7333 82.4801 77.8867 83.4148 77.8867 84.4545V85.5455H66.1935V82.9545H73.5572C73.5515 82.5795 73.4549 82.25 73.2674 81.9659C73.0856 81.6761 72.8384 81.4517 72.5259 81.2926C72.2191 81.1278 71.8697 81.0455 71.4776 81.0455C71.0969 81.0455 70.7475 81.1278 70.4293 81.2926C70.1112 81.4517 69.8555 81.6733 69.6623 81.9574C69.4748 82.2415 69.3754 82.5739 69.364 82.9545V85.75C69.364 86.1705 69.4521 86.5455 69.6282 86.875C69.8043 87.2045 70.0572 87.4631 70.3867 87.6506C70.7163 87.8381 71.114 87.9318 71.5799 87.9318C71.9038 87.9318 72.1992 87.8864 72.4663 87.7955C72.739 87.7045 72.9719 87.5739 73.1651 87.4034C73.3583 87.2273 73.5004 87.017 73.5913 86.7727H77.8867C77.739 87.6818 77.3896 88.4716 76.8384 89.142C76.2873 89.8068 75.5572 90.3239 74.6481 90.6932C73.7447 91.0568 72.6879 91.2386 71.4776 91.2386ZM84.511 73.5455V91H79.8065V73.5455H84.511ZM93.2148 91.2386C91.7944 91.2386 90.5785 90.9574 89.5671 90.3949C88.5558 89.8267 87.7802 89.0369 87.2404 88.0256C86.7006 87.0085 86.4308 85.8295 86.4308 84.4886C86.4308 83.1477 86.7006 81.9716 87.2404 80.9602C87.7802 79.9432 88.5558 79.1534 89.5671 78.5909C90.5785 78.0227 91.7944 77.7386 93.2148 77.7386C94.6353 77.7386 95.8512 78.0227 96.8626 78.5909C97.8739 79.1534 98.6495 79.9432 99.1893 80.9602C99.729 81.9716 99.9989 83.1477 99.9989 84.4886C99.9989 85.8295 99.729 87.0085 99.1893 88.0256C98.6495 89.0369 97.8739 89.8267 96.8626 90.3949C95.8512 90.9574 94.6353 91.2386 93.2148 91.2386ZM93.2489 87.7614C93.6467 87.7614 93.9904 87.6278 94.2802 87.3608C94.57 87.0937 94.7944 86.7131 94.9535 86.2188C95.1126 85.7244 95.1921 85.1364 95.1921 84.4545C95.1921 83.767 95.1126 83.179 94.9535 82.6903C94.7944 82.196 94.57 81.8153 94.2802 81.5483C93.9904 81.2812 93.6467 81.1477 93.2489 81.1477C92.8285 81.1477 92.4677 81.2812 92.1665 81.5483C91.8654 81.8153 91.6353 82.196 91.4762 82.6903C91.3171 83.179 91.2376 83.767 91.2376 84.4545C91.2376 85.1364 91.3171 85.7244 91.4762 86.2188C91.6353 86.7131 91.8654 87.0937 92.1665 87.3608C92.4677 87.6278 92.8285 87.7614 93.2489 87.7614ZM114.703 77.9091L110.305 91H104.85L100.453 77.9091H105.396L107.51 86.5682H107.646L109.76 77.9091H114.703ZM121.915 91.2386C120.517 91.2386 119.313 90.9716 118.301 90.4375C117.296 89.8977 116.52 89.125 115.975 88.1193C115.435 87.108 115.165 85.8977 115.165 84.4886C115.165 83.1364 115.438 81.9545 115.983 80.9432C116.529 79.9318 117.299 79.1449 118.293 78.5824C119.287 78.0199 120.461 77.7386 121.813 77.7386C122.801 77.7386 123.696 77.892 124.498 78.1989C125.299 78.5057 125.983 78.9517 126.551 79.5369C127.12 80.1165 127.557 80.821 127.864 81.6506C128.171 82.4801 128.324 83.4148 128.324 84.4545V85.5455H116.631V82.9545H123.995C123.989 82.5795 123.892 82.25 123.705 81.9659C123.523 81.6761 123.276 81.4517 122.963 81.2926C122.657 81.1278 122.307 81.0455 121.915 81.0455C121.534 81.0455 121.185 81.1278 120.867 81.2926C120.549 81.4517 120.293 81.6733 120.1 81.9574C119.912 82.2415 119.813 82.5739 119.801 82.9545V85.75C119.801 86.1705 119.89 86.5455 120.066 86.875C120.242 87.2045 120.495 87.4631 120.824 87.6506C121.154 87.8381 121.551 87.9318 122.017 87.9318C122.341 87.9318 122.637 87.8864 122.904 87.7955C123.176 87.7045 123.409 87.5739 123.603 87.4034C123.796 87.2273 123.938 87.017 124.029 86.7727H128.324C128.176 87.6818 127.827 88.4716 127.276 89.142C126.725 89.8068 125.995 90.3239 125.086 90.6932C124.182 91.0568 123.125 91.2386 121.915 91.2386ZM134.983 91.1705C134.051 91.1705 133.193 90.9261 132.409 90.4375C131.63 89.9489 131.005 89.2074 130.534 88.2131C130.068 87.2187 129.835 85.9659 129.835 84.4545C129.835 82.875 130.079 81.5909 130.568 80.6023C131.062 79.6136 131.699 78.8892 132.477 78.429C133.261 77.9688 134.085 77.7386 134.949 77.7386C135.596 77.7386 136.164 77.8523 136.653 78.0795C137.142 78.3011 137.551 78.5994 137.88 78.9744C138.21 79.3437 138.46 79.75 138.63 80.1932H138.699V73.5455H143.403V91H138.733V88.8523H138.63C138.449 89.2955 138.187 89.6932 137.846 90.0455C137.511 90.392 137.102 90.6676 136.619 90.8722C136.142 91.071 135.596 91.1705 134.983 91.1705ZM136.721 87.5568C137.153 87.5568 137.522 87.4318 137.829 87.1818C138.142 86.9261 138.38 86.5682 138.545 86.108C138.716 85.642 138.801 85.0909 138.801 84.4545C138.801 83.8068 138.716 83.2528 138.545 82.7926C138.38 82.3267 138.142 81.9716 137.829 81.7273C137.522 81.4773 137.153 81.3523 136.721 81.3523C136.289 81.3523 135.92 81.4773 135.613 81.7273C135.312 81.9716 135.079 82.3267 134.914 82.7926C134.755 83.2528 134.676 83.8068 134.676 84.4545C134.676 85.1023 134.755 85.6591 134.914 86.125C135.079 86.5852 135.312 86.9403 135.613 87.1903C135.92 87.4347 136.289 87.5568 136.721 87.5568ZM148.27 91.2727C147.61 91.2727 147.045 91.0426 146.574 90.5824C146.108 90.1165 145.877 89.5511 145.883 88.8864C145.877 88.2386 146.108 87.6847 146.574 87.2244C147.045 86.7642 147.61 86.5341 148.27 86.5341C148.895 86.5341 149.446 86.7642 149.923 87.2244C150.406 87.6847 150.65 88.2386 150.656 88.8864C150.65 89.3295 150.534 89.733 150.306 90.0966C150.085 90.4545 149.795 90.7415 149.437 90.9574C149.079 91.1676 148.69 91.2727 148.27 91.2727Z" fill="white"/>
</svg>
